<?xml version="1.0" encoding="utf-8"?>
<!-- Generator: Adobe Illustrator 25.2.1, SVG Export Plug-In . SVG Version: 6.00 Build 0)  -->
<svg version="1.1" id="Layer_1" xmlns="http://www.w3.org/2000/svg" xmlns:xlink="http://www.w3.org/1999/xlink" x="0px" y="0px"
	 width="40.3px" height="6.4px" viewBox="0 0 40.3 6.4" style="enable-background:new 0 0 40.3 6.4;" xml:space="preserve">
<style type="text/css">
	.st0{fill:#FFFFFF;}
</style>
<g>
	<path class="st0" d="M0,6.2V1.9c0-0.5,0.2-1,0.5-1.3s0.7-0.5,1.3-0.5c0.6,0,1.1,0.3,1.4,0.8c0.2-0.3,0.4-0.5,0.7-0.7
		s0.5-0.2,0.9-0.2c0.5,0,1,0.2,1.2,0.5S6.4,1.4,6.4,2v4.2H4.6V2.3c0-0.2,0-0.3,0-0.4c0-0.1-0.1-0.1-0.2-0.1C4.2,1.8,4.1,2,4.1,2.3
		v3.9H2.3V2.3c0-0.2,0-0.3,0-0.4S2.1,1.8,2,1.8C1.9,1.8,1.8,2,1.8,2.3v3.9H0z"/>
	<path class="st0" d="M7.8,4.2c0.3,0,0.5,0.1,0.7,0.3C8.8,4.7,8.9,5,8.9,5.3S8.8,5.8,8.6,6C8.4,6.2,8.1,6.3,7.8,6.3
		C7.5,6.3,7.3,6.2,7.1,6C6.9,5.8,6.8,5.6,6.8,5.3c0-0.3,0.1-0.5,0.3-0.7S7.5,4.2,7.8,4.2z"/>
	<path class="st0" d="M11.6,3v1.6H11v1.6H9.2V2.5c0-0.7,0.2-1.3,0.6-1.7s1-0.7,1.6-0.7c0.7,0,1.3,0.3,1.8,0.9l-1.5,1.1
		c-0.1-0.2-0.2-0.3-0.4-0.3c-0.3,0-0.4,0.2-0.4,0.6V3H11.6z"/>
	<path class="st0" d="M14.6,1.7c0.6,0,1.2,0.2,1.6,0.7c0.4,0.4,0.7,1,0.7,1.6c0,0.6-0.2,1.2-0.7,1.6c-0.5,0.4-1,0.7-1.6,0.7
		S13.3,6,12.9,5.6s-0.7-1-0.7-1.6c0-0.6,0.2-1.2,0.7-1.6S13.9,1.7,14.6,1.7z M14.5,3.3c-0.2,0-0.3,0.1-0.4,0.2
		c-0.1,0.1-0.2,0.3-0.2,0.5c0,0.2,0.1,0.3,0.2,0.5s0.3,0.2,0.4,0.2c0.2,0,0.3-0.1,0.5-0.2s0.2-0.3,0.2-0.5c0-0.2-0.1-0.3-0.2-0.5
		C14.8,3.4,14.7,3.3,14.5,3.3z"/>
	<path class="st0" d="M21.4,6.2h-1.6V3.7c0-0.3-0.1-0.4-0.3-0.4c-0.2,0-0.3,0.1-0.3,0.4v2.5h-1.6V3.8c0-0.6,0.2-1.1,0.6-1.4
		c0.4-0.4,0.8-0.6,1.4-0.6c0.6,0,1.1,0.2,1.5,0.7c0.3,0.4,0.4,0.8,0.4,1.5V6.2z"/>
	<path class="st0" d="M25.1,1.9v1.7c-0.2,0-0.4,0-0.5,0.1c-0.1,0.1-0.1,0.3-0.2,0.5c-0.1,0.8-0.4,1.4-1,1.8
		c-0.3,0.2-0.7,0.3-1.3,0.3h-0.2V4.6H22c0.3,0,0.5-0.1,0.6-0.2c0.1-0.1,0.2-0.3,0.2-0.6c0-0.4,0.1-0.8,0.1-0.9s0.2-0.4,0.4-0.5
		C23.6,2,24,1.9,24.6,1.9H25.1z"/>
	<path class="st0" d="M30,4.3h-2.5c0-0.1-0.1-0.2-0.1-0.3c0-0.1,0-0.3,0.1-0.4h0.8C28.3,3.2,28.1,3,27.8,3c-0.2,0-0.4,0.1-0.5,0.3
		s-0.2,0.4-0.2,0.7c0,0.3,0.1,0.5,0.2,0.7s0.3,0.3,0.5,0.3c0.2,0,0.3-0.1,0.5-0.2l0.9,1.1c-0.4,0.3-0.9,0.5-1.5,0.5
		c-0.7,0-1.2-0.2-1.6-0.7s-0.7-1-0.7-1.6c0-0.6,0.2-1.2,0.7-1.6s1-0.7,1.6-0.7c0.6,0,1.2,0.2,1.6,0.6C29.8,2.8,30,3.3,30,4
		C30,4,30,4.1,30,4.3z"/>
	<path class="st0" d="M33.3,4.2L35,4.1c0,0.6-0.3,1.2-0.7,1.6s-0.9,0.6-1.6,0.6c-0.6,0-1.2-0.2-1.6-0.7c-0.4-0.4-0.7-1-0.7-1.6
		c0-0.6,0.2-1.1,0.7-1.6s1-0.7,1.6-0.7c0.5,0,1,0.2,1.5,0.5s0.7,0.8,0.8,1.3l-1.7,0.1c-0.1-0.2-0.3-0.3-0.5-0.3
		c-0.2,0-0.3,0.1-0.5,0.2S32.1,3.8,32.1,4c0,0.2,0.1,0.4,0.2,0.5c0.1,0.1,0.3,0.2,0.5,0.2C33,4.7,33.2,4.5,33.3,4.2z"/>
	<path class="st0" d="M38.1,4.6v1.7c-0.1,0-0.3,0-0.4,0c-0.7,0-1.2-0.2-1.6-0.7s-0.7-1-0.7-1.6c0-0.6,0.2-1.2,0.7-1.6
		c0.4-0.4,1-0.7,1.6-0.7c0.7,0,1.3,0.2,1.7,0.6c0.4,0.4,0.6,1,0.6,1.7v2.1h-1.6v-2c0-0.2-0.1-0.4-0.2-0.6s-0.3-0.2-0.5-0.2
		c-0.2,0-0.3,0.1-0.4,0.2S37.1,3.9,37.1,4c0,0.2,0.1,0.3,0.2,0.4s0.3,0.2,0.4,0.2C37.9,4.7,38,4.6,38.1,4.6z"/>
</g>
</svg>
